<?xml version="1.0" encoding="utf-8"?>
<?xml-stylesheet type="text/css" href="style.css" ?>
<!-- Generator: Adobe Illustrator 23.0.5, SVG Export Plug-In . SVG Version: 6.00 Build 0)  -->
<svg version="1.1" xmlns="http://www.w3.org/2000/svg" xmlns:xlink="http://www.w3.org/1999/xlink" x="0px" y="0px"
	 viewBox="0 0 500 500" style="enable-background:new 0 0 500 500;" xml:space="preserve">
<g id="Layer_1">
	<g>
		<path class="st0" d="M136.5,369.5V221c0-62.6,50.9-113.5,113.5-113.5S363.5,158.4,363.5,221v148.5H136.5z"/>
		<path d="M250,108c30.2,0,58.6,11.8,79.9,33.1c21.3,21.3,33.1,49.7,33.1,79.9v148H137V221c0-30.2,11.8-58.6,33.1-79.9
			S219.8,108,250,108 M250,107L250,107c-63,0-114,51-114,114v149h228V221C364,158,313,107,250,107L250,107z"/>
	</g>
</g>
<g id="transistor1">
	<g>
		<circle class="st1" cx="210.8" cy="269.4" r="26"/>
		<line class="st1" x1="198.8" y1="257.9" x2="198.8" y2="281.9"/>
		<path class="st1" d="M217.8,311.4v-21.3c0-0.4-0.2-0.8-0.6-1.1l-18.4-10.5"/>
		<line class="st1" x1="176.8" y1="270.4" x2="198.8" y2="270.4"/>
		<path class="st1" d="M217.8,228.5v21.3c0,0.4-0.2,0.8-0.6,1.1l-18.4,10.5"/>
		<polygon points="212.9,286.6 207.8,277.8 202.8,286.6 		"/>
		<circle class="st1" cx="173.4" cy="270.4" r="3.4"/>
		<circle class="st1" cx="217.8" cy="225" r="3.4"/>
		<circle class="st1" cx="217.8" cy="314.8" r="3.4"/>
	</g>
</g>
<g id="transistor2">
	<g>
		<circle class="st1" cx="289" cy="270.4" r="26"/>
		<line class="st1" x1="301" y1="281.9" x2="301" y2="257.9"/>
		<path class="st1" d="M282,228.4v21.3c0,0.4,0.2,0.8,0.6,1.1l18.4,10.5"/>
		<line class="st1" x1="323" y1="269.4" x2="301" y2="269.4"/>
		<path class="st1" d="M282,311.3V290c0-0.4,0.2-0.8,0.6-1.1l18.4-10.5"/>
		<polygon points="286.9,253.2 292,262 297,253.2 		"/>
		<circle class="st1" cx="326.4" cy="269.4" r="3.4"/>
		<circle class="st1" cx="282" cy="314.8" r="3.4"/>
		<circle class="st1" cx="282" cy="225" r="3.4"/>
	</g>
</g>
<g id="a">
	<line class="st1" x1="189.5" y1="369.5" x2="173.5" y2="270.5"/>
	<line class="st1" x1="189.5" y1="369.5" x2="189.5" y2="428.5"/>
	<circle class="st1" cx="189.5" cy="447.5" r="19"/>
</g>
<g id="b">
	<line class="st1" x1="310.5" y1="369.5" x2="310.5" y2="428.5"/>
	<circle class="st1" cx="310.5" cy="447.5" r="19"/>
	<line class="st1" x1="310.5" y1="369.5" x2="326.5" y2="269.5"/>
	<line class="st1" x1="217.8" y1="314.8" x2="282" y2="314.8"/>
</g>
<g id="a_to_b">
</g>
<g id="output">
	<circle class="st1" cx="249.5" cy="32.5" r="19"/>
	<g>
		<line class="st1" x1="249.5" y1="107" x2="249.5" y2="52"/>
	</g>
	<line class="st1" x1="282" y1="225" x2="249.5" y2="107"/>
</g>
</svg>
