<svg xmlns="http://www.w3.org/2000/svg" width="100" height="100" viewBox="0 0 100 100"><defs><style>.a{fill:#fff;stroke:#000;stroke-miterlimit:10;stroke-width:4px;}</style></defs><title>ic</title><rect class="a" x="30.5365" y="8.788" width="38.927" height="82.4239" rx="7.4583"/><path d="M25.75,26.856h3.5486a0,0,0,0,1,0,0v7.2514a0,0,0,0,1,0,0H25.75a.9792.9792,0,0,1-.9792-.9792v-5.293A.9792.9792,0,0,1,25.75,26.856Z"/><path d="M56.275,8.788v2.01a6.275,6.275,0,1,1-12.55,0V8.788Z"/><path d="M25.75,46.3743h3.5486a0,0,0,0,1,0,0v7.2514a0,0,0,0,1,0,0H25.75a.9792.9792,0,0,1-.9792-.9792v-5.293A.9792.9792,0,0,1,25.75,46.3743Z"/><path d="M25.75,65.8926h3.5486a0,0,0,0,1,0,0V73.144a0,0,0,0,1,0,0H25.75a.9792.9792,0,0,1-.9792-.9792v-5.293A.9792.9792,0,0,1,25.75,65.8926Z"/><path d="M71.68,65.8926h3.5486a0,0,0,0,1,0,0V73.144a0,0,0,0,1,0,0H71.68a.9792.9792,0,0,1-.9792-.9792v-5.293A.9792.9792,0,0,1,71.68,65.8926Z" transform="translate(145.9299 139.0365) rotate(180)"/><path d="M71.68,46.3743h3.5486a0,0,0,0,1,0,0v7.2514a0,0,0,0,1,0,0H71.68a.9792.9792,0,0,1-.9792-.9792v-5.293A.9792.9792,0,0,1,71.68,46.3743Z" transform="translate(145.9299 100) rotate(180)"/><path d="M71.68,26.856h3.5486a0,0,0,0,1,0,0v7.2514a0,0,0,0,1,0,0H71.68a.9792.9792,0,0,1-.9792-.9792v-5.293A.9792.9792,0,0,1,71.68,26.856Z" transform="translate(145.9299 60.9635) rotate(180)"/></svg>