<svg xmlns="http://www.w3.org/2000/svg" width="100" height="100" viewBox="0 0 100 100"><title>rotate-01</title><path d="M49.99.17A49.83,49.83,0,1,0,99.81,50,49.83,49.83,0,0,0,49.99.17ZM82.92,69.34,70.76,83.96a.6212.6212,0,0,1-.87.1.4741.4741,0,0,1-.1-.1L57.63,69.34a.6429.6429,0,0,1,.08-.89.6773.6773,0,0,1,.41-.14h9.65V55.95A22.3866,22.3866,0,0,0,45.41,33.58l-12.59.01v9.65a.6274.6274,0,0,1-.63.63.6371.6371,0,0,1-.4-.15L17.16,31.57a.6356.6356,0,0,1-.07-.9.462.462,0,0,1,.07-.07L31.79,18.44a.6429.6429,0,0,1,.89.08.6773.6773,0,0,1,.14.41v9.65H45.41A27.3884,27.3884,0,0,1,72.77,55.95V68.31h9.66a.6253.6253,0,0,1,.63.62A.6018.6018,0,0,1,82.92,69.34Z"/></svg>