<svg xmlns="http://www.w3.org/2000/svg" width="100" height="100" viewBox="0 0 100 100"><defs><style>.a{fill:none;}.a,.b{stroke:#000;stroke-miterlimit:10;stroke-width:4px;}.b{fill:#fff;}</style></defs><title>xnor</title><line class="a" x1="50" y1="15.3338" x2="50"/><polyline class="a" points="37.55 79.934 37.5 87.5 25 100"/><polyline class="a" points="62.5 79.934 62.5 87.6 75 100"/><path class="b" d="M50,70.9c8.6,0,18.7,4.1,18.7,4.1s.2-15.6-4.8-28.1A78.967,78.967,0,0,0,51.5591,26.6875a2.0347,2.0347,0,0,0-3.1261.0012A78.578,78.578,0,0,0,36.1,46.9C31.1,59.4,31.3,75,31.3,75S41.5,70.9,50,70.9Z"/><path class="a" d="M70.2259,82.9352s-10.9467-5.2685-20.2485-5.2685c-9.1936,0-20.2033,5.2685-20.2033,5.2685"/><circle class="a" cx="50" cy="20.4959" r="5.1621"/></svg>