<svg xmlns="http://www.w3.org/2000/svg" viewBox="0 0 500 500"><defs><style>.a,.c{fill:#fff;}.a,.b,.c{stroke:#000;stroke-miterlimit:10;}.a{stroke-width:11px;}.b{fill:none;}.b,.c{stroke-width:18px;}</style></defs><title>xorgate</title><circle class="a" cx="250.5" cy="36.3782" r="29.3782"/><circle class="a" cx="144.1566" cy="464.6218" r="29.3782"/><circle class="a" cx="358.8434" cy="464.6218" r="29.3782"/><line class="b" x1="250.0654" y1="66" x2="250" y2="145"/><polyline class="b" points="338.108 443.811 305.172 410.95 305 378"/><polyline class="b" points="164.892 443.811 197.828 410.95 198 377"/><path class="c" d="M205.918,208.2025c-4.76,9.03-9.4819,18.9735-13.918,29.7975-25,61-19,114-19,114s38.5682-18,77-18c36.2732,0,76.5978,18,76.5978,18s5.5267-54.0785-19.0061-113.9387c-23.5877-57.5538-55.2516-90.2259-57.8261-92.8258C247.3272,147.7082,226.271,169.5959,205.918,208.2025Z"/><path class="b" d="M162.4849,387.9767S194,370,250.4722,369.9767c41.4491,0,87.5278,18,87.5278,18"/></svg>